<svg width="122" height="25" viewBox="0 0 122 25" fill="none" xmlns="http://www.w3.org/2000/svg">
<path d="M4.944 1.336L10.104 14.056L8.088 13.648L12.768 1.336H16.896L8.832 19.816L0.768 1.336H4.944ZM19.3999 8.512H22.7599V19H19.3999V8.512ZM19.3279 4.792C19.3279 4.296 19.5199 3.888 19.9039 3.568C20.3039 3.248 20.7279 3.088 21.1759 3.088C21.6239 3.088 22.0319 3.248 22.3999 3.568C22.7839 3.888 22.9759 4.296 22.9759 4.792C22.9759 5.288 22.7839 5.696 22.3999 6.016C22.0319 6.32 21.6239 6.472 21.1759 6.472C20.7279 6.472 20.3039 6.32 19.9039 6.016C19.5199 5.696 19.3279 5.288 19.3279 4.792ZM35.1242 18.064C34.6602 18.432 34.0762 18.728 33.3722 18.952C32.6842 19.176 32.0042 19.288 31.3322 19.288C30.1322 19.288 29.0842 19.072 28.1882 18.64C27.3082 18.192 26.6202 17.56 26.1242 16.744C25.6442 15.912 25.4042 14.912 25.4042 13.744C25.4042 12.576 25.6682 11.584 26.1962 10.768C26.7242 9.936 27.4122 9.304 28.2602 8.872C29.1242 8.44 30.0282 8.224 30.9722 8.224C31.9162 8.224 32.7322 8.352 33.4202 8.608C34.1242 8.864 34.7242 9.2 35.2202 9.616L33.5882 11.776C33.3642 11.6 33.0522 11.424 32.6522 11.248C32.2682 11.056 31.8122 10.96 31.2842 10.96C30.8202 10.96 30.3962 11.08 30.0122 11.32C29.6282 11.56 29.3242 11.888 29.1002 12.304C28.8762 12.72 28.7642 13.2 28.7642 13.744C28.7642 14.256 28.8842 14.728 29.1242 15.16C29.3642 15.592 29.6922 15.936 30.1082 16.192C30.5402 16.432 31.0442 16.552 31.6202 16.552C31.9882 16.552 32.3242 16.504 32.6282 16.408C32.9482 16.296 33.2202 16.144 33.4442 15.952L35.1242 18.064ZM37.7046 19V0.0639992H41.0646V19H37.7046ZM43.7286 11.872L48.4806 19H44.5686L41.5206 13.792L43.7286 11.872ZM40.0566 16.096L39.7206 12.904L46.0566 8.248L48.0966 10.048L40.0566 16.096ZM51.6461 24.04L58.6301 8.512H61.6541L54.8861 24.04H51.6461ZM54.4541 19.048L49.3181 8.512H53.0861L57.0461 17.368L54.4541 19.048ZM73.6104 5.608C72.9384 5.24 72.2504 4.936 71.5464 4.696C70.8584 4.456 70.2104 4.336 69.6024 4.336C68.8504 4.336 68.2584 4.488 67.8264 4.792C67.3944 5.096 67.1784 5.552 67.1784 6.16C67.1784 6.576 67.3384 6.952 67.6584 7.288C67.9944 7.608 68.4184 7.896 68.9304 8.152C69.4584 8.408 70.0024 8.64 70.5624 8.848C71.0744 9.04 71.5784 9.272 72.0744 9.544C72.5864 9.8 73.0424 10.128 73.4424 10.528C73.8424 10.912 74.1624 11.4 74.4024 11.992C74.6424 12.568 74.7624 13.28 74.7624 14.128C74.7624 15.024 74.5304 15.856 74.0664 16.624C73.6024 17.392 72.9224 18.016 72.0264 18.496C71.1304 18.96 70.0264 19.192 68.7144 19.192C68.0424 19.192 67.3544 19.128 66.6504 19C65.9624 18.856 65.2824 18.648 64.6104 18.376C63.9384 18.088 63.2904 17.728 62.6664 17.296L64.2024 14.584C64.6184 14.888 65.0664 15.16 65.5464 15.4C66.0424 15.624 66.5384 15.8 67.0344 15.928C67.5304 16.056 67.9864 16.12 68.4024 16.12C68.8184 16.12 69.2344 16.064 69.6504 15.952C70.0824 15.824 70.4344 15.616 70.7064 15.328C70.9944 15.04 71.1384 14.64 71.1384 14.128C71.1384 13.776 71.0184 13.456 70.7784 13.168C70.5544 12.88 70.2424 12.616 69.8424 12.376C69.4584 12.136 69.0344 11.928 68.5704 11.752C68.0264 11.544 67.4664 11.304 66.8904 11.032C66.3144 10.76 65.7704 10.432 65.2584 10.048C64.7624 9.648 64.3544 9.16 64.0344 8.584C63.7304 7.992 63.5784 7.272 63.5784 6.424C63.5784 5.4 63.8024 4.512 64.2504 3.76C64.7144 3.008 65.3624 2.416 66.1944 1.984C67.0264 1.536 67.9864 1.288 69.0744 1.24C70.4984 1.24 71.6504 1.408 72.5304 1.744C73.4264 2.08 74.2264 2.48 74.9304 2.944L73.6104 5.608ZM77.6186 19V0.0639992H80.9066V10.624L80.8826 10.216C81.2506 9.56 81.7706 9.032 82.4426 8.632C83.1146 8.216 83.9386 8.008 84.9146 8.008C85.9066 8.008 86.7306 8.304 87.3866 8.896C88.0586 9.472 88.4026 10.224 88.4186 11.152V19H85.0586V12.4C85.0426 11.936 84.9146 11.568 84.6746 11.296C84.4506 11.008 84.0666 10.864 83.5226 10.864C83.0106 10.864 82.5626 11.032 82.1786 11.368C81.7946 11.704 81.4986 12.16 81.2906 12.736C81.0826 13.312 80.9786 13.976 80.9786 14.728V19H77.6186ZM97.0286 19.288C95.7486 19.288 94.6606 19.048 93.7646 18.568C92.8846 18.088 92.2126 17.424 91.7486 16.576C91.2846 15.728 91.0526 14.752 91.0526 13.648C91.0526 12.592 91.3246 11.64 91.8686 10.792C92.4126 9.944 93.1406 9.272 94.0526 8.776C94.9646 8.264 95.9806 8.008 97.1006 8.008C98.6046 8.008 99.8366 8.448 100.797 9.328C101.773 10.192 102.405 11.448 102.693 13.096L94.5326 15.688L93.7886 13.864L99.6926 11.872L98.9966 12.184C98.8686 11.768 98.6366 11.408 98.3006 11.104C97.9806 10.784 97.4926 10.624 96.8366 10.624C96.3406 10.624 95.9006 10.744 95.5166 10.984C95.1486 11.208 94.8606 11.536 94.6526 11.968C94.4606 12.384 94.3646 12.88 94.3646 13.456C94.3646 14.112 94.4846 14.664 94.7246 15.112C94.9646 15.544 95.2926 15.872 95.7086 16.096C96.1246 16.32 96.5886 16.432 97.1006 16.432C97.4686 16.432 97.8206 16.368 98.1566 16.24C98.5086 16.112 98.8526 15.944 99.1886 15.736L100.677 18.232C100.117 18.552 99.5086 18.808 98.8526 19C98.2126 19.192 97.6046 19.288 97.0286 19.288ZM108.182 8.512L108.446 10.384L108.398 10.216C108.766 9.56 109.286 9.032 109.958 8.632C110.63 8.216 111.454 8.008 112.43 8.008C113.422 8.008 114.246 8.304 114.902 8.896C115.574 9.472 115.918 10.224 115.934 11.152V19H112.574V12.4C112.558 11.936 112.43 11.568 112.19 11.296C111.966 11.008 111.582 10.864 111.038 10.864C110.526 10.864 110.078 11.032 109.694 11.368C109.31 11.704 109.014 12.16 108.806 12.736C108.598 13.312 108.494 13.976 108.494 14.728V19H105.134V8.512H108.182ZM118.016 17.272C118.016 16.776 118.192 16.36 118.544 16.024C118.912 15.688 119.312 15.52 119.744 15.52C120.144 15.52 120.52 15.688 120.872 16.024C121.24 16.36 121.424 16.776 121.424 17.272C121.424 17.8 121.24 18.224 120.872 18.544C120.52 18.848 120.144 19 119.744 19C119.312 19 118.912 18.848 118.544 18.544C118.192 18.224 118.016 17.8 118.016 17.272Z" fill="#FD853A"/>
</svg>
